<mxfile host="app.diagrams.net" modified="2020-12-11T04:02:22.658Z" agent="5.0 (Windows NT 10.0; Win64; x64) AppleWebKit/537.36 (KHTML, like Gecko) Chrome/87.0.4280.88 Safari/537.36" etag="VHlm-v9knihnoOko2bW3" version="13.10.8" type="github">
  <diagram id="Rn8mhyH5KP1DUf5TbTiJ" name="Page-1">
    <mxGraphModel dx="1422" dy="762" grid="1" gridSize="10" guides="1" tooltips="1" connect="1" arrows="1" fold="1" page="1" pageScale="1" pageWidth="827" pageHeight="1169" math="0" shadow="0">
      <root>
        <mxCell id="0" />
        <mxCell id="1" parent="0" />
        <mxCell id="UErNP8QinnZ7R_jnbtOL-9" style="edgeStyle=orthogonalEdgeStyle;rounded=0;orthogonalLoop=1;jettySize=auto;html=1;entryX=1;entryY=0.5;entryDx=0;entryDy=0;" edge="1" parent="1" source="UErNP8QinnZ7R_jnbtOL-1" target="UErNP8QinnZ7R_jnbtOL-8">
          <mxGeometry relative="1" as="geometry">
            <Array as="points">
              <mxPoint x="340" y="300" />
              <mxPoint x="340" y="150" />
            </Array>
          </mxGeometry>
        </mxCell>
        <mxCell id="UErNP8QinnZ7R_jnbtOL-10" value="任务数据：&lt;br&gt;执行时间，&lt;br&gt;执行状态，&lt;br&gt;任务账号和密码，&lt;br&gt;任务对应的用户密码&lt;br&gt;对应分配的安卓机" style="edgeLabel;html=1;align=center;verticalAlign=middle;resizable=0;points=[];" vertex="1" connectable="0" parent="UErNP8QinnZ7R_jnbtOL-9">
          <mxGeometry x="0.65" y="2" relative="1" as="geometry">
            <mxPoint x="19" y="-2" as="offset" />
          </mxGeometry>
        </mxCell>
        <mxCell id="UErNP8QinnZ7R_jnbtOL-11" style="edgeStyle=orthogonalEdgeStyle;rounded=0;orthogonalLoop=1;jettySize=auto;html=1;exitX=0.25;exitY=0;exitDx=0;exitDy=0;entryX=0;entryY=0.5;entryDx=0;entryDy=0;" edge="1" parent="1" source="UErNP8QinnZ7R_jnbtOL-1" target="UErNP8QinnZ7R_jnbtOL-4">
          <mxGeometry relative="1" as="geometry" />
        </mxCell>
        <mxCell id="UErNP8QinnZ7R_jnbtOL-12" value="用户标识" style="edgeLabel;html=1;align=center;verticalAlign=middle;resizable=0;points=[];" vertex="1" connectable="0" parent="UErNP8QinnZ7R_jnbtOL-11">
          <mxGeometry x="0.4341" y="2" relative="1" as="geometry">
            <mxPoint x="-34" y="2" as="offset" />
          </mxGeometry>
        </mxCell>
        <mxCell id="UErNP8QinnZ7R_jnbtOL-14" style="edgeStyle=orthogonalEdgeStyle;rounded=0;orthogonalLoop=1;jettySize=auto;html=1;exitX=0.75;exitY=1;exitDx=0;exitDy=0;entryX=0.75;entryY=0;entryDx=0;entryDy=0;" edge="1" parent="1" source="UErNP8QinnZ7R_jnbtOL-1" target="UErNP8QinnZ7R_jnbtOL-2">
          <mxGeometry relative="1" as="geometry" />
        </mxCell>
        <mxCell id="UErNP8QinnZ7R_jnbtOL-15" value="任务数据：&lt;br&gt;任务账号和密码，&lt;br&gt;任务id，&lt;br&gt;设备状态" style="edgeLabel;html=1;align=center;verticalAlign=middle;resizable=0;points=[];" vertex="1" connectable="0" parent="UErNP8QinnZ7R_jnbtOL-14">
          <mxGeometry x="-0.07" relative="1" as="geometry">
            <mxPoint as="offset" />
          </mxGeometry>
        </mxCell>
        <mxCell id="UErNP8QinnZ7R_jnbtOL-1" value="服务器" style="rounded=1;whiteSpace=wrap;html=1;" vertex="1" parent="1">
          <mxGeometry x="370" y="270" width="120" height="60" as="geometry" />
        </mxCell>
        <mxCell id="UErNP8QinnZ7R_jnbtOL-16" style="edgeStyle=orthogonalEdgeStyle;rounded=0;orthogonalLoop=1;jettySize=auto;html=1;exitX=0.25;exitY=0;exitDx=0;exitDy=0;entryX=0;entryY=0.5;entryDx=0;entryDy=0;" edge="1" parent="1" source="UErNP8QinnZ7R_jnbtOL-2" target="UErNP8QinnZ7R_jnbtOL-1">
          <mxGeometry relative="1" as="geometry" />
        </mxCell>
        <mxCell id="UErNP8QinnZ7R_jnbtOL-17" value="提交运行状态：&lt;br&gt;任务运行阶段情况" style="edgeLabel;html=1;align=center;verticalAlign=middle;resizable=0;points=[];" vertex="1" connectable="0" parent="UErNP8QinnZ7R_jnbtOL-16">
          <mxGeometry x="-0.03" y="-1" relative="1" as="geometry">
            <mxPoint x="66" y="-1" as="offset" />
          </mxGeometry>
        </mxCell>
        <mxCell id="UErNP8QinnZ7R_jnbtOL-2" value="远程安卓机" style="rounded=1;whiteSpace=wrap;html=1;" vertex="1" parent="1">
          <mxGeometry x="110" y="470" width="120" height="60" as="geometry" />
        </mxCell>
        <mxCell id="UErNP8QinnZ7R_jnbtOL-6" style="edgeStyle=orthogonalEdgeStyle;rounded=0;orthogonalLoop=1;jettySize=auto;html=1;exitX=0;exitY=1;exitDx=0;exitDy=0;entryX=0.75;entryY=0;entryDx=0;entryDy=0;" edge="1" parent="1" source="UErNP8QinnZ7R_jnbtOL-4" target="UErNP8QinnZ7R_jnbtOL-1">
          <mxGeometry relative="1" as="geometry" />
        </mxCell>
        <mxCell id="UErNP8QinnZ7R_jnbtOL-7" value="获取所有远端机状态，&lt;br&gt;发起任务，&lt;br&gt;添加定时任务，&lt;br&gt;获取任务状态，&lt;br&gt;历史任务数据" style="edgeLabel;html=1;align=center;verticalAlign=middle;resizable=0;points=[];" vertex="1" connectable="0" parent="UErNP8QinnZ7R_jnbtOL-6">
          <mxGeometry x="0.0929" y="3" relative="1" as="geometry">
            <mxPoint as="offset" />
          </mxGeometry>
        </mxCell>
        <mxCell id="UErNP8QinnZ7R_jnbtOL-4" value="用户端" style="rounded=1;whiteSpace=wrap;html=1;" vertex="1" parent="1">
          <mxGeometry x="670" y="100" width="120" height="60" as="geometry" />
        </mxCell>
        <mxCell id="UErNP8QinnZ7R_jnbtOL-8" value="数据库" style="rounded=1;whiteSpace=wrap;html=1;" vertex="1" parent="1">
          <mxGeometry x="50" y="120" width="120" height="60" as="geometry" />
        </mxCell>
      </root>
    </mxGraphModel>
  </diagram>
</mxfile>
